<svg xmlns="http://www.w3.org/2000/svg" width="500" height="281" viewBox="0 0 500 281" version="1.1"><path d="" stroke="none" fill="#248c44" fill-rule="evenodd"/><path d="M 229.500 64 C 224.395 70.634, 223.743 70.839, 215.093 68.537 C 211.660 67.623, 209.072 67.426, 208.005 67.997 C 207.064 68.501, 205.549 71.762, 204.562 75.409 C 203.592 78.991, 202.282 82.339, 201.650 82.850 C 201.017 83.360, 197.575 84.102, 194 84.500 C 186.932 85.286, 185 86.266, 185 89.065 C 185 91.556, 193.105 104.305, 194.053 103.304 C 194.471 102.862, 196.477 100.475, 198.509 98 C 208.883 85.367, 226.121 75.968, 242.161 74.199 L 248.500 73.500 248.500 69.062 C 248.500 64.751, 248.343 64.531, 243 61.317 C 239.975 59.497, 236.739 58.006, 235.808 58.004 C 234.878 58.002, 232.039 60.700, 229.500 64 M 257.250 61.275 C 252.139 64.397, 252 64.604, 252 69.096 L 252 73.711 258.488 74.317 C 266.400 75.056, 277.263 78.723, 284.741 83.179 C 290.550 86.641, 301.211 96.385, 304.702 101.422 L 306.727 104.345 311.363 97.433 C 316.127 90.332, 316.931 87.697, 314.750 86.341 C 314.063 85.914, 310.125 85.100, 306 84.532 L 298.500 83.500 296.238 76.524 C 293.148 66.991, 292.823 66.748, 285.497 68.497 C 276.111 70.738, 275.814 70.646, 271 64 C 265.903 56.965, 264.696 56.726, 257.250 61.275 M 235 77.571 C 226.783 79.721, 214.183 86.297, 208.237 91.538 C 200.589 98.280, 189.393 114.727, 191.213 116.546 C 191.527 116.861, 195.321 116.456, 199.642 115.647 C 203.964 114.837, 210.650 113.870, 214.500 113.498 C 219.944 112.971, 222.440 112.163, 225.729 109.863 C 235.453 103.063, 245.793 100.434, 256.209 102.111 C 262.963 103.199, 271.029 106.781, 275 110.458 C 276.771 112.097, 279.250 112.964, 283.500 113.431 C 289.872 114.132, 305.321 116.742, 308.250 117.614 C 313.555 119.193, 305.360 104.263, 295.520 94.423 C 287.676 86.579, 276.539 80.297, 265.540 77.510 C 258.082 75.621, 242.332 75.652, 235 77.571 M 56.750 81.750 C 8.997 82.039, 8.479 82.101, 15.257 86.702 C 22.929 91.910, 25.105 92.049, 98.667 92.009 L 166.835 91.972 167.458 94.807 C 168.898 101.366, 178.386 108.923, 185.250 108.978 C 189.492 109.012, 188.948 104.948, 184.056 100.056 C 181.347 97.347, 179.926 94.919, 179.518 92.306 C 178.601 86.430, 176.754 83.611, 172.966 82.306 C 169.439 81.092, 167.217 81.081, 56.750 81.750 M 327.643 81.945 C 323.372 83.349, 321 85.958, 321 89.254 C 321 93.354, 318.225 98.774, 314.846 101.272 C 312.892 102.717, 312 104.257, 312 106.188 C 312 108.594, 312.397 108.997, 314.750 108.978 C 321.618 108.923, 331.102 101.366, 332.545 94.797 L 333.169 91.953 401.335 92.012 C 474.945 92.075, 477.024 91.942, 484.743 86.702 C 491.328 82.231, 490.074 82, 459.250 81.999 C 443.438 81.998, 408 81.775, 380.500 81.502 C 350.563 81.205, 329.353 81.383, 327.643 81.945 M 250.660 88.750 C 251.002 91.362, 251.413 93.658, 251.574 93.850 C 252.315 94.737, 254 92.675, 254 90.882 C 254 89.782, 253.550 89.160, 253 89.500 C 252.417 89.861, 252 88.844, 252 87.059 C 252 85.377, 251.559 84, 251.019 84 C 250.428 84, 250.286 85.889, 250.660 88.750 M 254.434 85.440 C 253.929 86.674, 254.069 87.523, 254.820 87.773 C 255.469 87.990, 256 89.517, 256 91.167 C 256 92.990, 256.453 94.016, 257.155 93.782 C 258.505 93.332, 261.180 85, 259.974 85 C 259.526 85, 258.819 86.463, 258.404 88.250 L 257.649 91.500 256.438 87.500 C 255.418 84.129, 255.102 83.805, 254.434 85.440 M 232.168 86.875 C 230.154 88.151, 232.676 96, 235.099 96 C 237.768 96, 238.292 94.310, 235.824 93.664 C 234.006 93.189, 233.871 92.860, 234.958 91.551 C 236.031 90.258, 235.975 90, 234.622 90 C 232.702 90, 232.532 88.868, 234.200 87.200 C 235.569 85.831, 234.169 85.607, 232.168 86.875 M 267.162 89.111 C 265.266 94.174, 264.898 96, 265.774 96 C 266.835 96, 269.399 88.065, 268.597 87.264 C 268.300 86.966, 267.653 87.798, 267.162 89.111 M 222 91.941 C 222 92.459, 222.489 93.184, 223.087 93.554 C 223.868 94.036, 223.869 94.531, 223.091 95.309 C 222.313 96.087, 221.592 95.844, 220.536 94.446 C 218.228 91.395, 218.661 94.715, 221.082 98.632 C 223.552 102.630, 224.453 102.942, 223.589 99.500 C 222.849 96.552, 224.608 96.115, 226.608 98.750 C 228.726 101.541, 228.208 98.468, 225.901 94.557 C 223.908 91.179, 222 89.900, 222 91.941 M 274.099 94.557 C 271.732 98.569, 271.619 99, 272.933 99 C 273.446 99, 274.151 98.100, 274.500 97 C 274.849 95.900, 275.779 95, 276.567 95 C 277.355 95, 278 94.100, 278 93 C 278 89.971, 276.437 90.595, 274.099 94.557 M 280 94 C 280 94.550, 279.065 95.935, 277.923 97.077 C 276.686 98.314, 276.097 99.810, 276.467 100.774 C 276.947 102.024, 277.642 101.493, 279.513 98.447 C 282.193 94.084, 282.489 93, 281 93 C 280.450 93, 280 93.450, 280 94 M 29 96.187 C 29 98.328, 34.978 103.678, 39.500 105.586 C 44.217 107.575, 58.863 108.569, 68.407 107.547 L 75.062 106.834 72.119 103.483 C 70.501 101.640, 68.881 99.202, 68.521 98.066 C 67.892 96.084, 67.163 95.999, 50.683 95.986 C 41.232 95.979, 32.487 95.701, 31.250 95.370 C 29.690 94.952, 29 95.202, 29 96.187 M 104.250 95.750 C 68.738 96.046, 68.302 96.117, 73.262 100.777 C 79.435 106.575, 93.583 109.616, 109.479 108.559 C 120.721 107.812, 148.312 105.311, 154.630 104.466 C 158.640 103.929, 158.832 104.037, 161.276 108.208 C 164.670 114, 167.066 115.991, 173.098 118.033 C 178.923 120.005, 182 119.609, 182 116.888 C 182 115.646, 180.496 114.303, 177.554 112.920 C 172.595 110.590, 168.933 106.344, 166.020 99.546 L 164.071 95 150.786 95.236 C 143.478 95.366, 122.537 95.597, 104.250 95.750 M 333.633 100.295 C 330.866 106.553, 326.091 111.579, 320.969 113.629 C 318.053 114.796, 317.333 115.559, 317.727 117.064 C 318.112 118.536, 319.104 118.995, 321.867 118.978 C 329.219 118.934, 334.458 115.184, 340.500 105.642 C 341.408 104.208, 343.298 104.250, 361 106.094 C 387.098 108.813, 407.646 109.072, 415.063 106.776 C 418.122 105.828, 422.130 104.029, 423.969 102.776 C 427.334 100.485, 429.827 97.446, 428.965 96.686 C 428.709 96.461, 407.676 96.003, 382.223 95.670 L 335.947 95.063 333.633 100.295 M 450.310 95.748 C 433.003 96.030, 432.089 96.144, 431.472 98.088 C 431.115 99.212, 429.499 101.640, 427.881 103.483 L 424.938 106.834 431.593 107.547 C 441.137 108.569, 455.783 107.575, 460.500 105.586 C 462.700 104.658, 465.962 102.483, 467.750 100.753 C 471.041 97.568, 472.038 94.812, 469.750 95.226 C 469.063 95.350, 460.315 95.585, 450.310 95.748 M 210.200 100.200 C 208.474 101.926, 208.721 103, 210.845 103 C 211.860 103, 213.505 103.900, 214.500 105 C 215.495 106.100, 216.774 107, 217.342 107 C 217.910 107, 217.165 105.738, 215.687 104.195 C 214.209 102.653, 213 100.853, 213 100.195 C 213 98.664, 211.734 98.666, 210.200 100.200 M 285.061 101.939 C 282.642 104.358, 282.441 106.291, 284.436 107.947 C 286.149 109.368, 290.465 107.561, 289.415 105.863 C 288.977 105.154, 288.430 105.170, 287.687 105.913 C 287.089 106.511, 286.240 107, 285.800 107 C 284.258 107, 285.020 104.292, 287.090 102.418 C 289.143 100.561, 289.208 100.563, 290.680 102.513 C 292.175 104.494, 292.179 104.494, 291.830 102.500 C 291.346 99.735, 287.577 99.423, 285.061 101.939 M 240 104.879 C 236.103 106.156, 229 109.960, 229 110.770 C 229.001 111.172, 238.451 111.500, 250.001 111.500 C 263.531 111.500, 270.896 111.144, 270.705 110.500 C 270.543 109.950, 268.193 108.391, 265.482 107.036 C 261.523 105.057, 258.779 104.523, 251.527 104.317 C 246.562 104.175, 241.375 104.429, 240 104.879 M 134.500 109.634 C 118.680 111.278, 95.560 111.794, 87.750 110.678 C 80.564 109.651, 80.095 111.213, 86.059 116.318 C 90.961 120.514, 96.330 121.996, 106.693 122.012 C 115.217 122.026, 161.047 117.132, 162.234 116.081 C 162.638 115.724, 161.779 113.760, 160.324 111.716 C 157.833 108.214, 157.388 108.008, 152.590 108.142 C 149.791 108.219, 141.650 108.891, 134.500 109.634 M 339.643 111.575 C 338.204 113.693, 337.358 115.720, 337.763 116.079 C 338.952 117.131, 384.770 122.026, 393.307 122.012 C 403.670 121.996, 409.039 120.514, 413.941 116.318 C 419.261 111.765, 419.379 109.498, 414.250 110.392 C 404.941 112.013, 393.141 112.068, 376 110.567 C 365.825 109.677, 354.071 108.672, 349.880 108.336 L 342.260 107.724 339.643 111.575 M 44.005 111.215 C 44.002 111.609, 45.371 113.492, 47.047 115.400 C 51.593 120.578, 58.155 122.457, 71.170 122.308 C 77.038 122.241, 82.791 121.884, 83.954 121.515 C 86.020 120.859, 86 120.764, 83.123 117.487 C 81.502 115.642, 79.903 113.271, 79.570 112.220 C 79.001 110.429, 77.860 110.315, 61.487 110.404 C 51.874 110.457, 44.008 110.822, 44.005 111.215 M 420.430 112.220 C 420.097 113.271, 418.498 115.642, 416.877 117.487 C 414 120.764, 413.980 120.859, 416.046 121.515 C 417.209 121.884, 422.962 122.241, 428.830 122.308 C 441.845 122.457, 448.407 120.578, 452.953 115.400 C 454.629 113.492, 455.998 111.609, 455.995 111.215 C 455.992 110.822, 448.126 110.457, 438.513 110.404 C 422.140 110.315, 420.999 110.429, 420.430 112.220 M 224.408 115.015 C 183.209 118.486, 141.187 131.482, 106.500 151.479 C 94.863 158.187, 84 165.697, 84 167.032 C 84 167.544, 86.983 172.043, 90.630 177.030 C 97.244 186.075, 99.154 187.298, 101.311 183.871 C 102.118 182.590, 101.232 180.723, 97.154 175.117 L 91.972 167.992 99.736 162.986 C 104.006 160.232, 113.575 154.885, 121 151.104 C 157.347 132.591, 194.268 122.843, 234.500 121.136 L 249.500 120.500 249.500 117.500 L 249.500 114.500 241.500 114.374 C 237.100 114.305, 229.409 114.593, 224.408 115.015 M 252.187 117.250 L 252.500 120.500 266 121.143 C 302.633 122.888, 338.032 132.087, 371.500 148.561 C 386.419 155.905, 407 168.374, 407 170.069 C 407 170.558, 404.750 174.041, 402 177.810 C 399.250 181.579, 397 184.912, 397 185.217 C 397 185.521, 398.076 186.475, 399.391 187.337 C 401.758 188.888, 401.851 188.811, 408.540 179.724 C 412.257 174.675, 415.344 169.874, 415.399 169.055 C 415.523 167.233, 403.199 158.697, 388.032 150.100 C 354.064 130.846, 312.422 118.304, 271.605 115.033 C 264.512 114.465, 257.171 114, 255.291 114 C 252.037 114, 251.888 114.156, 252.187 117.250 M 140 122.166 C 128.175 123.767, 113.438 125.166, 107.250 125.275 C 101.063 125.384, 96 125.784, 96 126.164 C 96 127.677, 101.552 131.086, 106.319 132.502 C 109.093 133.326, 114.600 134, 118.556 134 C 124.910 134, 127.980 133.204, 144.865 127.176 C 155.379 123.423, 164.285 120.048, 164.657 119.676 C 165.590 118.744, 164.382 118.866, 140 122.166 M 335.500 119.749 C 336.050 120.294, 339.875 121.885, 344 123.285 C 348.125 124.684, 357.575 127.919, 365 130.475 L 378.500 135.120 386.261 134.080 C 390.530 133.508, 395.480 132.302, 397.261 131.399 C 400.785 129.615, 404 127.064, 404 126.053 C 404 125.703, 399.387 125.383, 393.750 125.342 C 385.322 125.281, 352.224 121.719, 338 119.342 C 335.684 118.955, 334.838 119.093, 335.500 119.749 M 84 124.637 C 83.175 124.859, 77.600 125.370, 71.611 125.771 L 60.721 126.500 63.940 129.642 C 65.711 131.371, 69.261 133.396, 71.830 134.142 C 76.903 135.617, 89.236 135.892, 95.284 134.665 L 99.067 133.897 95.534 129.768 C 93.590 127.498, 92 125.271, 92 124.820 C 92 123.997, 86.810 123.879, 84 124.637 M 215.684 125.378 C 208.572 128.046, 205 133.007, 205 140.216 C 205 146.337, 207.799 151.055, 213.074 153.822 C 216.801 155.778, 218.606 156.079, 224.500 155.730 C 228.350 155.501, 233.484 154.445, 235.910 153.381 L 240.319 151.448 240.410 145.224 L 240.500 138.999 233.332 139 C 229.389 139, 225.452 138.727, 224.582 138.393 C 223.300 137.901, 223 138.554, 223 141.834 C 223 146.346, 224.144 147.736, 226.009 145.489 C 228.363 142.652, 234 144.060, 234 147.484 C 234 148.411, 227.101 150, 223.073 150 C 217.299 150, 214.386 148.022, 212.911 143.097 C 211.419 138.117, 213.174 134.185, 218.001 131.695 C 222.329 129.461, 230.112 129.886, 233.016 132.515 C 234.114 133.508, 235.187 134.136, 235.401 133.911 C 236.204 133.062, 239.011 125.678, 238.663 125.330 C 238.463 125.130, 234.070 124.737, 228.900 124.456 C 222.118 124.088, 218.437 124.345, 215.684 125.378 M 266.378 125.369 C 255.935 130.140, 259.002 140.518, 271.563 142.912 C 280.129 144.545, 285 145.969, 285 146.840 C 285 151.756, 268.319 150.554, 264.525 145.365 C 263.495 143.957, 263.062 144.229, 261.132 147.501 C 259.915 149.564, 259.050 151.380, 259.209 151.535 C 260.924 153.206, 273.196 156, 278.821 156 C 288.083 156, 292.359 153.355, 292.801 147.349 C 293.060 143.839, 292.674 142.903, 290.061 140.705 C 288.265 139.193, 284.662 137.674, 281.260 136.993 C 271.069 134.953, 269.509 134.404, 269.189 132.744 C 268.343 128.348, 283.324 130.089, 287.787 134.904 L 290.120 137.421 292.605 134.246 C 293.972 132.499, 295.100 130.755, 295.112 130.369 C 295.125 129.984, 292.517 128.588, 289.317 127.268 C 282.034 124.262, 270.832 123.335, 266.378 125.369 M 408 124.681 C 408 125.208, 406.410 127.498, 404.466 129.768 L 400.933 133.897 404.716 134.690 C 406.797 135.126, 412.325 135.485, 417 135.486 C 424.219 135.489, 426.329 135.082, 431 132.785 C 434.025 131.297, 437.025 129.228, 437.667 128.186 C 438.775 126.388, 438.318 126.260, 428.667 125.673 C 423.075 125.332, 416.137 124.754, 413.250 124.387 C 410.102 123.988, 408 124.106, 408 124.681 M 297.650 126.758 C 297.392 127.174, 296.887 129.087, 296.527 131.008 L 295.871 134.500 300.406 134.672 C 302.900 134.767, 305.342 135.093, 305.834 135.397 C 306.555 135.843, 303.655 150.800, 301.416 158.190 C 301.029 159.466, 301.832 160.137, 304.702 160.934 C 309.702 162.323, 310.319 162.275, 309.658 160.551 C 309.189 159.328, 313.635 139.320, 314.649 138.090 C 315.271 137.336, 323 140.066, 323 141.040 C 323 143.458, 324.798 141.619, 325.842 138.134 C 327.349 133.103, 327.334 133, 325.089 133 C 321.972 133, 301.582 127.967, 300.550 126.943 C 299.403 125.804, 298.283 125.733, 297.650 126.758 M 195 128.721 C 191.640 129.324, 190.436 130.609, 191.734 132.208 C 193.428 134.292, 195.997 148.213, 194.588 147.672 C 191.476 146.478, 176 135.857, 176 134.915 C 176 134.225, 174.837 134.094, 172.750 134.548 C 167.354 135.722, 164.468 137.053, 165.686 137.807 C 167.219 138.757, 174.990 162.863, 174.323 164.602 C 173.674 166.292, 175.567 166.395, 179.851 164.902 C 183.138 163.756, 183.605 163.040, 182.101 161.450 C 181.220 160.519, 176.819 145.847, 177.282 145.384 C 177.949 144.717, 196.944 157.698, 196.970 158.838 C 196.993 159.854, 198.023 160.006, 201.250 159.473 C 206.534 158.598, 207.351 158.128, 206.137 156.661 C 204.725 154.956, 199.925 131.359, 200.620 129.547 C 201.235 127.946, 200.182 127.791, 195 128.721 M 247.223 133.557 C 243.151 136.408, 245.560 143, 250.674 143 C 255.255 143, 257.593 136.752, 254.171 133.655 C 251.889 131.589, 250.068 131.564, 247.223 133.557 M 95.500 137.661 C 92.200 138.470, 85.564 139.215, 80.752 139.316 C 70.970 139.522, 69.993 140.408, 75.250 144.311 C 82.967 150.040, 93.823 150.644, 105.782 146.009 C 110.027 144.363, 114.850 141.930, 116.500 140.602 L 119.500 138.186 116 137.646 C 107.204 136.287, 101.081 136.291, 95.500 137.661 M 388.754 136.972 C 385.043 137.350, 381.739 137.927, 381.412 138.255 C 380.429 139.238, 388.045 143.745, 395.273 146.458 C 406.312 150.601, 417.361 149.797, 424.750 144.311 C 430.008 140.407, 429.030 139.521, 419.248 139.323 C 414.436 139.225, 407.575 138.444, 404 137.587 C 400.425 136.731, 397.050 136.087, 396.500 136.157 C 395.950 136.227, 392.464 136.593, 388.754 136.972 M 153.201 140.401 C 143.710 144.248, 143.352 144.494, 144.725 146.226 C 145.281 146.927, 146.038 151.100, 146.407 155.500 L 147.079 163.500 141.585 157.500 C 138.564 154.200, 136.071 150.938, 136.046 150.250 C 135.981 148.496, 134.537 148.685, 129.886 151.058 C 126.941 152.560, 126.123 153.444, 126.857 154.328 C 127.411 154.995, 128.504 159.250, 129.287 163.784 L 130.711 172.028 124.605 166.264 C 121.247 163.094, 118.355 159.938, 118.177 159.250 C 117.999 158.563, 117.638 158, 117.375 158 C 116.406 158, 109.015 162.520, 109.008 163.117 C 109.003 163.457, 110.693 164.854, 112.762 166.224 C 114.830 167.593, 120.329 172.353, 124.980 176.803 L 133.437 184.893 136.688 182.884 C 139.275 181.285, 139.742 180.530, 138.975 179.187 C 138.445 178.259, 137.393 173.747, 136.637 169.159 L 135.263 160.818 141.631 167.130 C 145.134 170.602, 148 174.018, 148 174.721 C 148 176.416, 149.453 176.334, 153.131 174.432 C 155.289 173.316, 155.979 172.387, 155.525 171.205 C 154.455 168.416, 153.064 155.889, 153.031 148.750 C 153.001 142.218, 154.026 140.143, 155.502 143.750 C 158.248 150.462, 163.604 167.727, 163.257 168.750 C 162.694 170.410, 163.969 170.326, 168.628 168.395 C 173.559 166.351, 173.666 166.227, 171.792 164.740 C 169.978 163.301, 162.731 141.968, 163.190 139.423 C 163.688 136.667, 162.001 136.833, 153.201 140.401 M 328.962 140.250 C 324.159 142.672, 320 149.053, 320 154 C 320 155.417, 321.012 158.584, 322.250 161.038 C 324.012 164.532, 325.678 166.097, 329.929 168.250 C 336.520 171.588, 340.185 171.702, 346.034 168.750 C 353.573 164.945, 357.048 155.861, 353.551 149.099 C 350.457 143.115, 342.155 138.024, 335.462 138.006 C 334.341 138.003, 331.416 139.012, 328.962 140.250 M 329.923 147.923 C 325.815 152.031, 325.971 156.171, 330.400 160.600 C 335.012 165.212, 340.755 165.399, 345.077 161.077 C 349.877 156.276, 348.521 149.872, 341.989 146.494 C 337.376 144.109, 333.249 144.598, 329.923 147.923 M 359.479 148.934 C 360.235 151.315, 350.077 173.981, 348.250 173.992 C 345.705 174.008, 347.130 175.665, 351.527 177.801 C 356.767 180.346, 357.326 180.449, 356.722 178.750 C 356.373 177.770, 359.168 170.733, 360.520 169.186 C 360.671 169.013, 363.879 170.410, 367.648 172.291 C 371.416 174.172, 375.741 176.010, 377.259 176.377 C 380.980 177.275, 385.402 174.857, 386.972 171.067 C 389.736 164.396, 386.232 160.336, 370.976 152.532 C 365.028 149.490, 359.869 147, 359.513 147 C 359.157 147, 359.142 147.871, 359.479 148.934 M 365.162 159.543 C 364.523 160.946, 364 162.255, 364 162.452 C 364 163.364, 375.203 169, 377.016 169 C 379.587 169, 380.726 166.275, 378.887 164.527 C 378.124 163.802, 374.986 161.810, 371.912 160.101 L 366.325 156.992 365.162 159.543 M 224.500 159.079 C 192.684 162.454, 156.880 175.015, 126.659 193.404 C 120.697 197.032, 115.639 200, 115.420 200 C 115.201 200, 112.715 196.827, 109.894 192.949 C 104.748 185.874, 102.763 184.835, 100.689 188.129 C 99.875 189.421, 101.074 191.697, 106.486 199.129 C 110.239 204.283, 113.436 208.659, 113.592 208.854 C 113.748 209.049, 117.616 206.747, 122.188 203.738 C 156.888 180.902, 194.003 168.008, 234.500 164.718 L 249.500 163.500 249.500 161 C 249.500 158.540, 249.364 158.498, 241 158.365 C 236.325 158.291, 228.900 158.613, 224.500 159.079 M 252 161 C 252 163.187, 252.475 164.003, 253.750 164.010 C 260.809 164.052, 281.550 166.540, 291.735 168.566 C 318.381 173.868, 348.998 186.612, 373 202.393 C 379.325 206.552, 384.950 209.959, 385.500 209.965 C 386.050 209.971, 388.153 207.619, 390.172 204.738 C 392.192 201.857, 395.219 197.656, 396.898 195.401 L 399.951 191.302 397.607 189.101 L 395.264 186.899 389.938 194.200 C 387.008 198.215, 384.530 201.632, 384.429 201.793 C 384.329 201.954, 380.029 199.335, 374.874 195.972 C 363.511 188.561, 339.127 176.446, 325.549 171.466 C 305.375 164.067, 274.626 158.005, 257.250 158.001 C 252.083 158, 252 158.047, 252 161 M 236.233 167.869 C 232.786 168.216, 229.911 168.950, 229.843 169.500 C 229.775 170.050, 232.145 171.747, 235.110 173.271 C 242.217 176.926, 251.579 177.855, 259.058 175.648 C 265.588 173.721, 271.615 170.198, 270.384 169.027 C 269.214 167.916, 244.197 167.068, 236.233 167.869 M 209 171.160 C 202.675 172.257, 197.141 173.502, 196.701 173.926 C 196.262 174.350, 197.669 176.932, 199.828 179.663 C 212.378 195.540, 230.340 204.259, 250.500 204.259 C 268.439 204.259, 282.546 198.384, 295.750 185.416 C 300.288 180.959, 304 176.599, 304 175.727 C 304 174.043, 299.958 172.953, 284.577 170.490 L 276.560 169.207 272.263 172.163 C 269.900 173.789, 265.386 176.026, 262.233 177.134 C 251.252 180.993, 235.596 178.333, 226.313 171.031 C 223.255 168.626, 223.623 168.624, 209 171.160 M 215.598 176.634 C 212.835 179.955, 212.780 180.205, 214.455 181.812 C 216.116 183.406, 216.177 183.374, 215.540 181.250 C 214.995 179.432, 215.257 179, 216.901 179 C 218.365 179, 218.763 178.546, 218.317 177.385 C 217.811 176.066, 218.139 175.907, 220.099 176.518 C 222.486 177.261, 222.489 177.253, 220.595 175.133 C 219.547 173.960, 218.647 173.032, 218.595 173.072 C 218.543 173.112, 217.194 174.715, 215.598 176.634 M 279.667 175.667 C 278.088 177.246, 279.127 179.994, 281.531 180.597 C 283.507 181.093, 283.922 181.671, 283.426 183.234 C 282.975 184.655, 283.184 185.105, 284.145 184.785 C 284.890 184.537, 285.500 183.266, 285.500 181.962 C 285.500 180.262, 284.792 179.417, 283 178.979 C 281.376 178.581, 280.603 177.777, 280.794 176.684 C 281.106 174.896, 280.755 174.579, 279.667 175.667 M 175.893 183.872 C 166.759 186.990, 153.115 192.615, 145.573 196.372 C 133.049 202.611, 129.703 205.036, 131.348 206.681 C 131.675 207.008, 140.393 205.212, 150.721 202.689 C 161.050 200.166, 173.266 197.569, 177.869 196.918 C 185.501 195.839, 197.677 196.171, 201.288 197.557 C 202.088 197.864, 203.726 201.426, 204.927 205.472 C 206.128 209.518, 207.718 213.061, 208.460 213.346 C 209.202 213.631, 212.440 213.236, 215.655 212.468 C 224.666 210.315, 225.050 210.438, 229.834 217.029 C 232.547 220.766, 234.892 223, 236.100 223 C 237.162 223, 240.521 221.347, 243.564 219.326 C 248.917 215.772, 249.088 215.519, 248.799 211.576 L 248.500 207.500 242.107 206.712 C 226.848 204.832, 213.993 198.261, 202.283 186.355 C 197.764 181.760, 193.714 178.046, 193.283 178.101 C 192.853 178.157, 185.027 180.754, 175.893 183.872 M 301.740 182.998 C 292.278 195.552, 270.720 206.919, 256.250 206.985 C 253.028 207, 253 207.042, 253 211.896 C 253 216.654, 253.136 216.879, 257.838 219.896 C 260.498 221.603, 263.536 222.987, 264.588 222.971 C 265.755 222.953, 268.189 220.615, 270.834 216.971 C 273.218 213.687, 275.778 211, 276.522 211 C 277.267 211, 280.871 211.695, 284.533 212.544 C 289.415 213.676, 291.543 213.795, 292.514 212.988 C 293.243 212.383, 294.779 208.793, 295.929 205.009 C 297.293 200.516, 298.622 197.961, 299.759 197.646 C 309.037 195.075, 322.067 196.473, 345.517 202.556 C 367.678 208.305, 367.965 208.369, 368.622 207.711 C 370.250 206.083, 367.146 203.816, 354.349 197.287 C 340.994 190.474, 314.043 179.474, 308.291 178.488 C 305.879 178.075, 304.990 178.687, 301.740 182.998 M 226.750 180.577 C 226.338 180.993, 226 182.133, 226 183.110 C 226 184.087, 225.067 185.540, 223.927 186.339 C 222.744 187.167, 222.285 188.058, 222.857 188.412 C 223.410 188.753, 224.192 188.498, 224.596 187.845 C 225.085 187.053, 225.673 187.464, 226.363 189.079 C 227.381 191.462, 227.403 191.449, 227.761 188.263 C 227.969 186.413, 229.062 184.329, 230.312 183.399 L 232.500 181.772 230.303 182.279 C 228.866 182.610, 228.001 182.272, 227.803 181.303 C 227.636 180.488, 227.162 180.161, 226.750 180.577 M 270.250 181.662 C 269.563 181.940, 269 182.606, 269 183.142 C 269 183.679, 269.446 183.842, 269.991 183.506 C 270.536 183.169, 271.744 184.492, 272.676 186.447 C 273.608 188.401, 274.737 190, 275.185 190 C 276.335 190, 276.213 189.313, 274.459 185.921 C 273.612 184.282, 273.188 182.504, 273.518 181.971 C 274.144 180.958, 272.402 180.794, 270.250 181.662 M 236.540 187.640 C 236.178 189.566, 235.636 191.785, 235.334 192.571 C 235.033 193.357, 235.284 194, 235.893 194 C 236.502 194, 237 193.356, 237 192.570 C 237 191.783, 238.012 190.995, 239.250 190.820 C 242.302 190.386, 242.374 186.052, 239.348 184.933 C 237.461 184.235, 237.116 184.568, 236.540 187.640 M 259.411 189.170 C 260.193 194.067, 262 196.771, 262 193.045 C 262 190.753, 262.054 190.739, 264 192.500 C 265.833 194.158, 266.975 193.316, 265.250 191.578 C 264.837 191.162, 264.500 189.625, 264.500 188.161 C 264.500 185.969, 263.990 185.442, 261.609 185.170 C 258.727 184.841, 258.721 184.853, 259.411 189.170 M 238.500 187 C 238.101 187.646, 238.224 188.624, 238.774 189.174 C 239.441 189.841, 240.016 189.783, 240.500 189 C 240.899 188.354, 240.776 187.376, 240.226 186.826 C 239.559 186.159, 238.984 186.217, 238.500 187 M 249 191 C 249 195.479, 249.228 196, 251.191 196 C 253.330 196, 253.336 195.966, 251.441 194.562 C 249.523 193.141, 249.524 193.106, 251.500 191.594 C 253.285 190.228, 253.312 190.060, 251.750 190.032 C 249.624 189.993, 249.379 188, 251.500 188 C 252.325 188, 253 187.550, 253 187 C 253 186.450, 252.100 186, 251 186 C 249.267 186, 249 186.667, 249 191 M 261 188 C 261 189.100, 261.450 190, 262 190 C 262.550 190, 263 189.100, 263 188 C 263 186.900, 262.550 186, 262 186 C 261.450 186, 261 186.900, 261 188" stroke="none" fill="#248444" fill-rule="evenodd"/></svg>